<svg xmlns="http://www.w3.org/2000/svg" width="375" viewBox="0 0 375 375" height="375" version="1.0"><path stroke-linecap="round" transform="matrix(7.00623 8.96824 -8.56673 6.69257 16.213 161.077)" fill="none" d="M 0.499995 0.000177005 L 4.945539 -0.0000470849" stroke="#D9D9D9"/><path stroke-linecap="round" transform="matrix(2.72185 -4.9005 5.70499 3.16868 51.661 211.834)" fill="none" d="M 0.500323 0.0000757251 L 16.25059 0.000292439" stroke="#D9D9D9"/><g fill="#D9D9D9"><g><g><path d="M 8.546875 0.5 C 6.941406 0.5 5.695312 0.0625 4.8125 -0.8125 C 3.9375 -1.695312 3.5 -2.976562 3.5 -4.65625 L 3.5 -33.953125 C 3.5 -35.628906 3.9375 -36.90625 4.8125 -37.78125 C 5.695312 -38.664062 6.941406 -39.109375 8.546875 -39.109375 C 10.148438 -39.109375 11.390625 -38.664062 12.265625 -37.78125 C 13.140625 -36.90625 13.578125 -35.628906 13.578125 -33.953125 L 13.578125 -23.71875 L 29.515625 -23.71875 L 29.515625 -33.953125 C 29.515625 -35.628906 29.953125 -36.90625 30.828125 -37.78125 C 31.703125 -38.664062 32.945312 -39.109375 34.5625 -39.109375 C 36.164062 -39.109375 37.394531 -38.664062 38.25 -37.78125 C 39.113281 -36.90625 39.546875 -35.628906 39.546875 -33.953125 L 39.546875 -4.65625 C 39.546875 -2.976562 39.113281 -1.695312 38.25 -0.8125 C 37.394531 0.0625 36.164062 0.5 34.5625 0.5 C 32.914062 0.5 31.660156 0.0625 30.796875 -0.8125 C 29.941406 -1.695312 29.515625 -2.976562 29.515625 -4.65625 L 29.515625 -15.4375 L 13.578125 -15.4375 L 13.578125 -4.65625 C 13.578125 -2.976562 13.148438 -1.695312 12.296875 -0.8125 C 11.441406 0.0625 10.191406 0.5 8.546875 0.5 Z M 8.546875 0.5" transform="translate(106.124 201.745)"/></g></g></g><g fill="#D9D9D9"><g><g><path d="M 5.3125 0.5 C 3.59375 0.5 2.332031 -0.0820312 1.53125 -1.25 C 0.726562 -2.425781 0.726562 -3.890625 1.53125 -5.640625 L 15.171875 -35 C 15.828125 -36.414062 16.628906 -37.453125 17.578125 -38.109375 C 18.523438 -38.773438 19.640625 -39.109375 20.921875 -39.109375 C 22.160156 -39.109375 23.253906 -38.773438 24.203125 -38.109375 C 25.148438 -37.453125 25.953125 -36.414062 26.609375 -35 L 40.25 -5.640625 C 41.09375 -3.847656 41.128906 -2.375 40.359375 -1.21875 C 39.597656 -0.0703125 38.394531 0.5 36.75 0.5 C 35.289062 0.5 34.164062 0.171875 33.375 -0.484375 C 32.59375 -1.148438 31.890625 -2.210938 31.265625 -3.671875 L 29.515625 -7.828125 L 12.265625 -7.828125 L 10.515625 -3.671875 C 9.859375 -2.210938 9.179688 -1.148438 8.484375 -0.484375 C 7.796875 0.171875 6.738281 0.5 5.3125 0.5 Z M 20.8125 -28.09375 L 15.546875 -15.546875 L 26.171875 -15.546875 L 20.921875 -28.09375 Z M 20.8125 -28.09375" transform="translate(149.159 201.745)"/></g></g></g><g fill="#D9D9D9"><g><g><path d="M 17.640625 0.5 C 16.023438 0.5 14.78125 0.0625 13.90625 -0.8125 C 13.03125 -1.695312 12.59375 -2.957031 12.59375 -4.59375 L 12.59375 -30.390625 L 4 -30.390625 C 1.21875 -30.390625 -0.171875 -31.757812 -0.171875 -34.5 C -0.171875 -37.238281 1.21875 -38.609375 4 -38.609375 L 31.265625 -38.609375 C 34.046875 -38.609375 35.4375 -37.238281 35.4375 -34.5 C 35.4375 -31.757812 34.046875 -30.390625 31.265625 -30.390625 L 22.671875 -30.390625 L 22.671875 -4.59375 C 22.671875 -2.957031 22.238281 -1.695312 21.375 -0.8125 C 20.519531 0.0625 19.273438 0.5 17.640625 0.5 Z M 17.640625 0.5" transform="translate(190.935 201.745)"/></g></g></g><g fill="#D9D9D9"><g><g><path d="M 22.125 0.609375 C 18.21875 0.609375 14.796875 -0.21875 11.859375 -1.875 C 8.921875 -3.539062 6.628906 -5.867188 4.984375 -8.859375 C 3.335938 -11.859375 2.515625 -15.347656 2.515625 -19.328125 C 2.515625 -23.347656 3.328125 -26.84375 4.953125 -29.8125 C 6.578125 -32.789062 8.867188 -35.101562 11.828125 -36.75 C 14.785156 -38.394531 18.21875 -39.21875 22.125 -39.21875 C 26.03125 -39.21875 29.453125 -38.394531 32.390625 -36.75 C 35.328125 -35.101562 37.617188 -32.789062 39.265625 -29.8125 C 40.910156 -26.84375 41.734375 -23.347656 41.734375 -19.328125 C 41.734375 -15.347656 40.910156 -11.859375 39.265625 -8.859375 C 37.617188 -5.867188 35.328125 -3.539062 32.390625 -1.875 C 29.453125 -0.21875 26.03125 0.609375 22.125 0.609375 Z M 22.125 -7.828125 C 24.96875 -7.828125 27.203125 -8.835938 28.828125 -10.859375 C 30.453125 -12.890625 31.265625 -15.710938 31.265625 -19.328125 C 31.265625 -22.941406 30.460938 -25.753906 28.859375 -27.765625 C 27.253906 -29.773438 25.007812 -30.78125 22.125 -30.78125 C 19.238281 -30.78125 16.992188 -29.773438 15.390625 -27.765625 C 13.785156 -25.753906 12.984375 -22.941406 12.984375 -19.328125 C 12.984375 -15.710938 13.785156 -12.890625 15.390625 -10.859375 C 16.992188 -8.835938 19.238281 -7.828125 22.125 -7.828125 Z M 22.125 -7.828125" transform="translate(226.196 201.745)"/></g></g></g><g fill="#D9D9D9"><g><g><path d="M 8.765625 0 C 5.253906 0 3.5 -1.734375 3.5 -5.203125 L 3.5 -33.40625 C 3.5 -36.875 5.253906 -38.609375 8.765625 -38.609375 L 19.5 -38.609375 C 26.175781 -38.609375 31.359375 -36.925781 35.046875 -33.5625 C 38.734375 -30.207031 40.578125 -25.460938 40.578125 -19.328125 C 40.578125 -13.191406 38.734375 -8.4375 35.046875 -5.0625 C 31.359375 -1.6875 26.175781 0 19.5 0 Z M 13.578125 -8.15625 L 18.84375 -8.15625 C 22.675781 -8.15625 25.515625 -9.078125 27.359375 -10.921875 C 29.203125 -12.765625 30.125 -15.566406 30.125 -19.328125 C 30.125 -23.085938 29.191406 -25.878906 27.328125 -27.703125 C 25.460938 -29.535156 22.632812 -30.453125 18.84375 -30.453125 L 13.578125 -30.453125 Z M 13.578125 -8.15625" transform="translate(270.38 201.745)"/></g></g></g><g fill="#D9D9D9"><g><g><path d="M 22.125 0.609375 C 18.21875 0.609375 14.796875 -0.21875 11.859375 -1.875 C 8.921875 -3.539062 6.628906 -5.867188 4.984375 -8.859375 C 3.335938 -11.859375 2.515625 -15.347656 2.515625 -19.328125 C 2.515625 -23.347656 3.328125 -26.84375 4.953125 -29.8125 C 6.578125 -32.789062 8.867188 -35.101562 11.828125 -36.75 C 14.785156 -38.394531 18.21875 -39.21875 22.125 -39.21875 C 26.03125 -39.21875 29.453125 -38.394531 32.390625 -36.75 C 35.328125 -35.101562 37.617188 -32.789062 39.265625 -29.8125 C 40.910156 -26.84375 41.734375 -23.347656 41.734375 -19.328125 C 41.734375 -15.347656 40.910156 -11.859375 39.265625 -8.859375 C 37.617188 -5.867188 35.328125 -3.539062 32.390625 -1.875 C 29.453125 -0.21875 26.03125 0.609375 22.125 0.609375 Z M 22.125 -7.828125 C 24.96875 -7.828125 27.203125 -8.835938 28.828125 -10.859375 C 30.453125 -12.890625 31.265625 -15.710938 31.265625 -19.328125 C 31.265625 -22.941406 30.460938 -25.753906 28.859375 -27.765625 C 27.253906 -29.773438 25.007812 -30.78125 22.125 -30.78125 C 19.238281 -30.78125 16.992188 -29.773438 15.390625 -27.765625 C 13.785156 -25.753906 12.984375 -22.941406 12.984375 -19.328125 C 12.984375 -15.710938 13.785156 -12.890625 15.390625 -10.859375 C 16.992188 -8.835938 19.238281 -7.828125 22.125 -7.828125 Z M 22.125 -7.828125" transform="translate(313.416 201.745)"/></g></g></g><path stroke-linecap="round" transform="matrix(7.00623 8.96824 -8.56673 6.69257 46.656 147.613)" fill="none" d="M 0.500076 -0.0000501982 L 4.945409 0.00000887303" stroke="#D9D9D9"/><path stroke-linecap="round" transform="matrix(2.72185 -4.9005 5.70499 3.16868 82.104 198.37)" fill="none" d="M 0.499714 0.000121762 L 16.250591 0.0000478352" stroke="#D9D9D9"/><path fill="#D9D9D9" d="M 9.304688 131.621094 L 9.304688 221.757812 L 99.445312 221.757812 L 99.445312 131.621094 L 9.304688 131.621094 M 96.574219 218.886719 L 12.117188 218.886719 L 12.117188 134.433594 L 96.574219 134.433594 L 96.574219 218.886719"/></svg>