<svg xmlns="http://www.w3.org/2000/svg width="370" viewBox="40 90 330 200" height="320" version="1.0"><path fill="#FFF" d="M 76.828125 136.351562 L 251.257812 136.351562 L 251.257812 304.769531 L 76.828125 304.769531 L 76.828125 136.351562"/><path fill="#D9D9D9" d="M 249.222656 302.730469 L 253.292969 302.730469 L 253.292969 306.808594 L 249.222656 306.808594 L 249.222656 302.730469 M 74.792969 138.394531 L 78.863281 138.394531 L 78.863281 302.730469 L 74.792969 302.730469 L 74.792969 138.394531 M 74.792969 302.730469 L 78.863281 302.730469 L 78.863281 306.808594 L 74.792969 306.808594 L 74.792969 302.730469 M 249.222656 138.394531 L 253.292969 138.394531 L 253.292969 302.730469 L 249.222656 302.730469 L 249.222656 138.394531 M 78.863281 302.730469 L 249.222656 302.730469 L 249.222656 306.808594 L 78.863281 306.808594 L 78.863281 302.730469 M 249.222656 134.3125 L 253.292969 134.3125 L 253.292969 138.394531 L 249.222656 138.394531 L 249.222656 134.3125 M 74.792969 134.3125 L 78.863281 134.3125 L 78.863281 138.394531 L 74.792969 138.394531 L 74.792969 134.3125 M 78.863281 134.3125 L 249.222656 134.3125 L 249.222656 138.394531 L 78.863281 138.394531 L 78.863281 134.3125"/><path stroke-linecap="round" transform="matrix(15.70819 20.10706 -19.91183 15.55567 85.12 171.697)" fill="none" d="M 0.499966 0.00000046295 L 4.791082 -0.0000293473" stroke="#D9D9D9"/><path stroke-linecap="round" transform="matrix(6.92735 -12.47222 12.4166 6.89645 163.503 282.855)" fill="none" d="M 0.500153 0.0000667042 L 14.062422 -0.0000400591" stroke="#D9D9D9"/><path stroke-linecap="round" transform="matrix(15.70819 20.10706 -19.91183 15.55567 152.063 142.09)" fill="none" d="M 0.500067 -0.00000270787 L 4.791089 0.0000893073" stroke="#D9D9D9"/><path stroke-linecap="round" transform="matrix(6.92735 -12.47222 12.4166 6.89645 230.447 253.247)" fill="none" d="M 0.499955 -0.00000349545 L 14.062357 0.00013017" stroke="#D9D9D9"/></svg>
